<svg width="23" height="23" viewBox="0 0 23 23" fill="none" xmlns="http://www.w3.org/2000/svg">
<mask id="path-1-outside-1_78_5774" maskUnits="userSpaceOnUse" x="0" y="0" width="23" height="23" fill="black">
<rect fill="white" width="23" height="23"/>
<path d="M21.6242 20.6082V8.8069C21.6255 8.55986 21.5375 8.32066 21.3764 8.13333C21.2154 7.94599 20.9921 7.82313 20.7476 7.78734L10.2677 6.19956C10.2441 5.96425 10.1719 5.73639 10.0558 5.53037C9.93962 5.32436 9.78203 5.14466 9.59293 5.00262V2.5235C9.59258 2.30737 9.52432 2.09681 9.39781 1.92157C9.2713 1.74633 9.09293 1.61527 8.8879 1.5469L8.43656 1.396C6.84372 0.868001 5.12304 0.868001 3.53021 1.396L3.07921 1.5469C2.87418 1.61527 2.69581 1.74633 2.5693 1.92157C2.44279 2.09681 2.37454 2.30737 2.37418 2.5235V5.00262C2.16108 5.16188 1.988 5.36859 1.86867 5.60636C1.74934 5.84413 1.68703 6.10643 1.68668 6.37247V20.6082C1.4782 20.651 1.293 20.7696 1.16695 20.941C1.0409 21.1125 0.982962 21.3247 1.00435 21.5364C1.02575 21.7482 1.12495 21.9444 1.28275 22.0872C1.44056 22.23 1.64573 22.3092 1.85856 22.3094H21.4523C21.6651 22.3092 21.8703 22.23 22.0281 22.0872C22.1859 21.9444 22.2851 21.7482 22.3065 21.5364C22.3279 21.3247 22.27 21.1125 22.1439 20.941C22.0179 20.7696 21.8327 20.651 21.6242 20.6082ZM20.9367 8.8069V20.5907H18.1867V15.7782H18.3586C18.5865 15.7782 18.8051 15.6876 18.9662 15.5264C19.1274 15.3653 19.2179 15.1467 19.2179 14.9188C19.2179 14.6909 19.1274 14.4723 18.9662 14.3111C18.8051 14.1499 18.5865 14.0594 18.3586 14.0594H12.5148C12.2869 14.0594 12.0683 14.1499 11.9071 14.3111C11.746 14.4723 11.6554 14.6909 11.6554 14.9188C11.6554 15.1467 11.746 15.3653 11.9071 15.5264C12.0683 15.6876 12.2869 15.7782 12.5148 15.7782H12.6867V20.5907H10.2804V6.89634L20.6445 8.46659C20.7259 8.47894 20.8001 8.52008 20.8537 8.58253C20.9074 8.64498 20.9368 8.72459 20.9367 8.8069ZM12.5148 15.0907C12.4692 15.0907 12.4255 15.0725 12.3933 15.0403C12.361 15.0081 12.3429 14.9644 12.3429 14.9188C12.3429 14.8732 12.361 14.8295 12.3933 14.7972C12.4255 14.765 12.4692 14.7469 12.5148 14.7469H18.3586C18.4041 14.7469 18.4479 14.765 18.4801 14.7972C18.5123 14.8295 18.5304 14.8732 18.5304 14.9188C18.5304 14.9644 18.5123 15.0081 18.4801 15.0403C18.4479 15.0725 18.4041 15.0907 18.3586 15.0907H12.5148ZM15.0929 15.7782V20.5907H13.3742V15.7782H15.0929ZM15.7804 15.7782H17.4992V20.5907H15.7804V15.7782ZM7.18668 4.88953V7.64193C6.39076 7.49897 5.57553 7.5013 4.78043 7.64881V4.88953C5.57691 4.75546 6.3902 4.75546 7.18668 4.88953ZM8.96799 5.4244C9.15351 5.50393 9.31161 5.63615 9.4227 5.80468C9.53379 5.9732 9.59298 6.17062 9.59293 6.37247V8.58794C9.0602 8.24704 8.48141 7.98415 7.87418 7.80728V5.04078C8.1954 5.12494 8.51035 5.23142 8.81674 5.35944L8.96799 5.4244ZM9.59293 12.0254C9.0602 11.6845 8.48141 11.4217 7.87418 11.2448V8.52297C8.4709 8.71947 9.0326 9.00955 9.53827 9.38234L9.59293 9.42256V12.0254ZM9.53827 12.8181L9.59293 12.8583V15.4629C9.0602 15.122 8.48141 14.8592 7.87418 14.6823V11.9605C8.47079 12.1564 9.03248 12.4459 9.53827 12.8181ZM7.18668 14.5169C6.39074 14.3741 5.57554 14.3765 4.78043 14.5238V11.7831C5.57419 11.6203 6.39269 11.6197 7.18668 11.7814V14.5169ZM4.09293 14.6864C3.48492 14.8677 2.90609 15.1353 2.37418 15.4812V12.8687L2.65777 12.6775C3.10216 12.3788 3.58493 12.1417 4.09293 11.9725V14.6864ZM2.65777 16.1137C3.10223 15.8154 3.585 15.5787 4.09293 15.41V18.4677C3.48492 18.6489 2.90609 18.9166 2.37418 19.2624V16.3062L2.65777 16.1137ZM4.78043 15.2206C5.57419 15.0578 6.39269 15.0572 7.18668 15.2189V18.2982C6.39074 18.1554 5.57554 18.1577 4.78043 18.3051V15.2206ZM7.87418 15.398C8.4709 15.5945 9.0326 15.8845 9.53827 16.2573L9.59293 16.2976V19.2459C9.0602 18.905 8.48141 18.6421 7.87418 18.4652V15.398ZM7.18668 8.34387V11.0794C6.39074 10.9366 5.57554 10.939 4.78043 11.0863V8.34525C5.57422 8.18254 6.39271 8.18207 7.18668 8.34387ZM4.09293 11.2489C3.48492 11.4302 2.90609 11.6978 2.37418 12.0437V9.43115L2.65777 9.24003C3.10216 8.94134 3.58493 8.70418 4.09293 8.535V11.2489ZM2.37418 20.086L2.65777 19.8949C3.10223 19.5967 3.585 19.36 4.09293 19.1912V20.5907H2.37418V20.086ZM4.78043 19.0018C5.57419 18.839 6.39269 18.8384 7.18668 19.0001V20.5907H4.78043V19.0018ZM7.87418 19.1792C8.4709 19.3757 9.0326 19.6658 9.53827 20.0386L9.59293 20.0788V20.5907H7.87418V19.1792ZM3.29681 2.19728L3.74918 2.0474C5.19996 1.56665 6.76708 1.56653 8.21793 2.04706L8.66893 2.19728C8.73767 2.21985 8.79753 2.26353 8.83999 2.3221C8.88245 2.38068 8.90535 2.45115 8.90543 2.5235V4.65475C7.0289 3.90897 4.93822 3.90897 3.06168 4.65475V2.5235C3.06166 2.45132 3.08436 2.38097 3.12657 2.32242C3.16877 2.26387 3.22833 2.22009 3.29681 2.19728ZM2.99912 5.4244L3.15002 5.35944C3.45651 5.23136 3.77158 5.12489 4.09293 5.04078V7.8114C3.48492 7.99267 2.90609 8.26032 2.37418 8.60615V6.37178C2.37427 6.17005 2.43352 5.97278 2.5446 5.80439C2.65568 5.636 2.81371 5.50388 2.99912 5.4244ZM21.4523 21.6219H1.85856C1.81297 21.6219 1.76926 21.6038 1.73702 21.5716C1.70479 21.5393 1.68668 21.4956 1.68668 21.45C1.68668 21.4044 1.70479 21.3607 1.73702 21.3285C1.76926 21.2963 1.81297 21.2782 1.85856 21.2782H21.4523C21.4979 21.2782 21.5416 21.2963 21.5738 21.3285C21.6061 21.3607 21.6242 21.4044 21.6242 21.45C21.6242 21.4956 21.6061 21.5393 21.5738 21.5716C21.5416 21.6038 21.4979 21.6219 21.4523 21.6219Z"/>
</mask>
<path d="M21.6242 20.6082V8.8069C21.6255 8.55986 21.5375 8.32066 21.3764 8.13333C21.2154 7.94599 20.9921 7.82313 20.7476 7.78734L10.2677 6.19956C10.2441 5.96425 10.1719 5.73639 10.0558 5.53037C9.93962 5.32436 9.78203 5.14466 9.59293 5.00262V2.5235C9.59258 2.30737 9.52432 2.09681 9.39781 1.92157C9.2713 1.74633 9.09293 1.61527 8.8879 1.5469L8.43656 1.396C6.84372 0.868001 5.12304 0.868001 3.53021 1.396L3.07921 1.5469C2.87418 1.61527 2.69581 1.74633 2.5693 1.92157C2.44279 2.09681 2.37454 2.30737 2.37418 2.5235V5.00262C2.16108 5.16188 1.988 5.36859 1.86867 5.60636C1.74934 5.84413 1.68703 6.10643 1.68668 6.37247V20.6082C1.4782 20.651 1.293 20.7696 1.16695 20.941C1.0409 21.1125 0.982962 21.3247 1.00435 21.5364C1.02575 21.7482 1.12495 21.9444 1.28275 22.0872C1.44056 22.23 1.64573 22.3092 1.85856 22.3094H21.4523C21.6651 22.3092 21.8703 22.23 22.0281 22.0872C22.1859 21.9444 22.2851 21.7482 22.3065 21.5364C22.3279 21.3247 22.27 21.1125 22.1439 20.941C22.0179 20.7696 21.8327 20.651 21.6242 20.6082ZM20.9367 8.8069V20.5907H18.1867V15.7782H18.3586C18.5865 15.7782 18.8051 15.6876 18.9662 15.5264C19.1274 15.3653 19.2179 15.1467 19.2179 14.9188C19.2179 14.6909 19.1274 14.4723 18.9662 14.3111C18.8051 14.1499 18.5865 14.0594 18.3586 14.0594H12.5148C12.2869 14.0594 12.0683 14.1499 11.9071 14.3111C11.746 14.4723 11.6554 14.6909 11.6554 14.9188C11.6554 15.1467 11.746 15.3653 11.9071 15.5264C12.0683 15.6876 12.2869 15.7782 12.5148 15.7782H12.6867V20.5907H10.2804V6.89634L20.6445 8.46659C20.7259 8.47894 20.8001 8.52008 20.8537 8.58253C20.9074 8.64498 20.9368 8.72459 20.9367 8.8069ZM12.5148 15.0907C12.4692 15.0907 12.4255 15.0725 12.3933 15.0403C12.361 15.0081 12.3429 14.9644 12.3429 14.9188C12.3429 14.8732 12.361 14.8295 12.3933 14.7972C12.4255 14.765 12.4692 14.7469 12.5148 14.7469H18.3586C18.4041 14.7469 18.4479 14.765 18.4801 14.7972C18.5123 14.8295 18.5304 14.8732 18.5304 14.9188C18.5304 14.9644 18.5123 15.0081 18.4801 15.0403C18.4479 15.0725 18.4041 15.0907 18.3586 15.0907H12.5148ZM15.0929 15.7782V20.5907H13.3742V15.7782H15.0929ZM15.7804 15.7782H17.4992V20.5907H15.7804V15.7782ZM7.18668 4.88953V7.64193C6.39076 7.49897 5.57553 7.5013 4.78043 7.64881V4.88953C5.57691 4.75546 6.3902 4.75546 7.18668 4.88953ZM8.96799 5.4244C9.15351 5.50393 9.31161 5.63615 9.4227 5.80468C9.53379 5.9732 9.59298 6.17062 9.59293 6.37247V8.58794C9.0602 8.24704 8.48141 7.98415 7.87418 7.80728V5.04078C8.1954 5.12494 8.51035 5.23142 8.81674 5.35944L8.96799 5.4244ZM9.59293 12.0254C9.0602 11.6845 8.48141 11.4217 7.87418 11.2448V8.52297C8.4709 8.71947 9.0326 9.00955 9.53827 9.38234L9.59293 9.42256V12.0254ZM9.53827 12.8181L9.59293 12.8583V15.4629C9.0602 15.122 8.48141 14.8592 7.87418 14.6823V11.9605C8.47079 12.1564 9.03248 12.4459 9.53827 12.8181ZM7.18668 14.5169C6.39074 14.3741 5.57554 14.3765 4.78043 14.5238V11.7831C5.57419 11.6203 6.39269 11.6197 7.18668 11.7814V14.5169ZM4.09293 14.6864C3.48492 14.8677 2.90609 15.1353 2.37418 15.4812V12.8687L2.65777 12.6775C3.10216 12.3788 3.58493 12.1417 4.09293 11.9725V14.6864ZM2.65777 16.1137C3.10223 15.8154 3.585 15.5787 4.09293 15.41V18.4677C3.48492 18.6489 2.90609 18.9166 2.37418 19.2624V16.3062L2.65777 16.1137ZM4.78043 15.2206C5.57419 15.0578 6.39269 15.0572 7.18668 15.2189V18.2982C6.39074 18.1554 5.57554 18.1577 4.78043 18.3051V15.2206ZM7.87418 15.398C8.4709 15.5945 9.0326 15.8845 9.53827 16.2573L9.59293 16.2976V19.2459C9.0602 18.905 8.48141 18.6421 7.87418 18.4652V15.398ZM7.18668 8.34387V11.0794C6.39074 10.9366 5.57554 10.939 4.78043 11.0863V8.34525C5.57422 8.18254 6.39271 8.18207 7.18668 8.34387ZM4.09293 11.2489C3.48492 11.4302 2.90609 11.6978 2.37418 12.0437V9.43115L2.65777 9.24003C3.10216 8.94134 3.58493 8.70418 4.09293 8.535V11.2489ZM2.37418 20.086L2.65777 19.8949C3.10223 19.5967 3.585 19.36 4.09293 19.1912V20.5907H2.37418V20.086ZM4.78043 19.0018C5.57419 18.839 6.39269 18.8384 7.18668 19.0001V20.5907H4.78043V19.0018ZM7.87418 19.1792C8.4709 19.3757 9.0326 19.6658 9.53827 20.0386L9.59293 20.0788V20.5907H7.87418V19.1792ZM3.29681 2.19728L3.74918 2.0474C5.19996 1.56665 6.76708 1.56653 8.21793 2.04706L8.66893 2.19728C8.73767 2.21985 8.79753 2.26353 8.83999 2.3221C8.88245 2.38068 8.90535 2.45115 8.90543 2.5235V4.65475C7.0289 3.90897 4.93822 3.90897 3.06168 4.65475V2.5235C3.06166 2.45132 3.08436 2.38097 3.12657 2.32242C3.16877 2.26387 3.22833 2.22009 3.29681 2.19728ZM2.99912 5.4244L3.15002 5.35944C3.45651 5.23136 3.77158 5.12489 4.09293 5.04078V7.8114C3.48492 7.99267 2.90609 8.26032 2.37418 8.60615V6.37178C2.37427 6.17005 2.43352 5.97278 2.5446 5.80439C2.65568 5.636 2.81371 5.50388 2.99912 5.4244ZM21.4523 21.6219H1.85856C1.81297 21.6219 1.76926 21.6038 1.73702 21.5716C1.70479 21.5393 1.68668 21.4956 1.68668 21.45C1.68668 21.4044 1.70479 21.3607 1.73702 21.3285C1.76926 21.2963 1.81297 21.2782 1.85856 21.2782H21.4523C21.4979 21.2782 21.5416 21.2963 21.5738 21.3285C21.6061 21.3607 21.6242 21.4044 21.6242 21.45C21.6242 21.4956 21.6061 21.5393 21.5738 21.5716C21.5416 21.6038 21.4979 21.6219 21.4523 21.6219Z" fill="#0C395B"/>
<path d="M21.6242 20.6082V8.8069C21.6255 8.55986 21.5375 8.32066 21.3764 8.13333C21.2154 7.94599 20.9921 7.82313 20.7476 7.78734L10.2677 6.19956C10.2441 5.96425 10.1719 5.73639 10.0558 5.53037C9.93962 5.32436 9.78203 5.14466 9.59293 5.00262V2.5235C9.59258 2.30737 9.52432 2.09681 9.39781 1.92157C9.2713 1.74633 9.09293 1.61527 8.8879 1.5469L8.43656 1.396C6.84372 0.868001 5.12304 0.868001 3.53021 1.396L3.07921 1.5469C2.87418 1.61527 2.69581 1.74633 2.5693 1.92157C2.44279 2.09681 2.37454 2.30737 2.37418 2.5235V5.00262C2.16108 5.16188 1.988 5.36859 1.86867 5.60636C1.74934 5.84413 1.68703 6.10643 1.68668 6.37247V20.6082C1.4782 20.651 1.293 20.7696 1.16695 20.941C1.0409 21.1125 0.982962 21.3247 1.00435 21.5364C1.02575 21.7482 1.12495 21.9444 1.28275 22.0872C1.44056 22.23 1.64573 22.3092 1.85856 22.3094H21.4523C21.6651 22.3092 21.8703 22.23 22.0281 22.0872C22.1859 21.9444 22.2851 21.7482 22.3065 21.5364C22.3279 21.3247 22.27 21.1125 22.1439 20.941C22.0179 20.7696 21.8327 20.651 21.6242 20.6082ZM20.9367 8.8069V20.5907H18.1867V15.7782H18.3586C18.5865 15.7782 18.8051 15.6876 18.9662 15.5264C19.1274 15.3653 19.2179 15.1467 19.2179 14.9188C19.2179 14.6909 19.1274 14.4723 18.9662 14.3111C18.8051 14.1499 18.5865 14.0594 18.3586 14.0594H12.5148C12.2869 14.0594 12.0683 14.1499 11.9071 14.3111C11.746 14.4723 11.6554 14.6909 11.6554 14.9188C11.6554 15.1467 11.746 15.3653 11.9071 15.5264C12.0683 15.6876 12.2869 15.7782 12.5148 15.7782H12.6867V20.5907H10.2804V6.89634L20.6445 8.46659C20.7259 8.47894 20.8001 8.52008 20.8537 8.58253C20.9074 8.64498 20.9368 8.72459 20.9367 8.8069ZM12.5148 15.0907C12.4692 15.0907 12.4255 15.0725 12.3933 15.0403C12.361 15.0081 12.3429 14.9644 12.3429 14.9188C12.3429 14.8732 12.361 14.8295 12.3933 14.7972C12.4255 14.765 12.4692 14.7469 12.5148 14.7469H18.3586C18.4041 14.7469 18.4479 14.765 18.4801 14.7972C18.5123 14.8295 18.5304 14.8732 18.5304 14.9188C18.5304 14.9644 18.5123 15.0081 18.4801 15.0403C18.4479 15.0725 18.4041 15.0907 18.3586 15.0907H12.5148ZM15.0929 15.7782V20.5907H13.3742V15.7782H15.0929ZM15.7804 15.7782H17.4992V20.5907H15.7804V15.7782ZM7.18668 4.88953V7.64193C6.39076 7.49897 5.57553 7.5013 4.78043 7.64881V4.88953C5.57691 4.75546 6.3902 4.75546 7.18668 4.88953ZM8.96799 5.4244C9.15351 5.50393 9.31161 5.63615 9.4227 5.80468C9.53379 5.9732 9.59298 6.17062 9.59293 6.37247V8.58794C9.0602 8.24704 8.48141 7.98415 7.87418 7.80728V5.04078C8.1954 5.12494 8.51035 5.23142 8.81674 5.35944L8.96799 5.4244ZM9.59293 12.0254C9.0602 11.6845 8.48141 11.4217 7.87418 11.2448V8.52297C8.4709 8.71947 9.0326 9.00955 9.53827 9.38234L9.59293 9.42256V12.0254ZM9.53827 12.8181L9.59293 12.8583V15.4629C9.0602 15.122 8.48141 14.8592 7.87418 14.6823V11.9605C8.47079 12.1564 9.03248 12.4459 9.53827 12.8181ZM7.18668 14.5169C6.39074 14.3741 5.57554 14.3765 4.78043 14.5238V11.7831C5.57419 11.6203 6.39269 11.6197 7.18668 11.7814V14.5169ZM4.09293 14.6864C3.48492 14.8677 2.90609 15.1353 2.37418 15.4812V12.8687L2.65777 12.6775C3.10216 12.3788 3.58493 12.1417 4.09293 11.9725V14.6864ZM2.65777 16.1137C3.10223 15.8154 3.585 15.5787 4.09293 15.41V18.4677C3.48492 18.6489 2.90609 18.9166 2.37418 19.2624V16.3062L2.65777 16.1137ZM4.78043 15.2206C5.57419 15.0578 6.39269 15.0572 7.18668 15.2189V18.2982C6.39074 18.1554 5.57554 18.1577 4.78043 18.3051V15.2206ZM7.87418 15.398C8.4709 15.5945 9.0326 15.8845 9.53827 16.2573L9.59293 16.2976V19.2459C9.0602 18.905 8.48141 18.6421 7.87418 18.4652V15.398ZM7.18668 8.34387V11.0794C6.39074 10.9366 5.57554 10.939 4.78043 11.0863V8.34525C5.57422 8.18254 6.39271 8.18207 7.18668 8.34387ZM4.09293 11.2489C3.48492 11.4302 2.90609 11.6978 2.37418 12.0437V9.43115L2.65777 9.24003C3.10216 8.94134 3.58493 8.70418 4.09293 8.535V11.2489ZM2.37418 20.086L2.65777 19.8949C3.10223 19.5967 3.585 19.36 4.09293 19.1912V20.5907H2.37418V20.086ZM4.78043 19.0018C5.57419 18.839 6.39269 18.8384 7.18668 19.0001V20.5907H4.78043V19.0018ZM7.87418 19.1792C8.4709 19.3757 9.0326 19.6658 9.53827 20.0386L9.59293 20.0788V20.5907H7.87418V19.1792ZM3.29681 2.19728L3.74918 2.0474C5.19996 1.56665 6.76708 1.56653 8.21793 2.04706L8.66893 2.19728C8.73767 2.21985 8.79753 2.26353 8.83999 2.3221C8.88245 2.38068 8.90535 2.45115 8.90543 2.5235V4.65475C7.0289 3.90897 4.93822 3.90897 3.06168 4.65475V2.5235C3.06166 2.45132 3.08436 2.38097 3.12657 2.32242C3.16877 2.26387 3.22833 2.22009 3.29681 2.19728ZM2.99912 5.4244L3.15002 5.35944C3.45651 5.23136 3.77158 5.12489 4.09293 5.04078V7.8114C3.48492 7.99267 2.90609 8.26032 2.37418 8.60615V6.37178C2.37427 6.17005 2.43352 5.97278 2.5446 5.80439C2.65568 5.636 2.81371 5.50388 2.99912 5.4244ZM21.4523 21.6219H1.85856C1.81297 21.6219 1.76926 21.6038 1.73702 21.5716C1.70479 21.5393 1.68668 21.4956 1.68668 21.45C1.68668 21.4044 1.70479 21.3607 1.73702 21.3285C1.76926 21.2963 1.81297 21.2782 1.85856 21.2782H21.4523C21.4979 21.2782 21.5416 21.2963 21.5738 21.3285C21.6061 21.3607 21.6242 21.4044 21.6242 21.45C21.6242 21.4956 21.6061 21.5393 21.5738 21.5716C21.5416 21.6038 21.4979 21.6219 21.4523 21.6219Z" stroke="#0C395B" stroke-width="0.4" mask="url(#path-1-outside-1_78_5774)"/>
</svg>
