<svg width="26" height="26" viewBox="0 0 26 26" fill="none" xmlns="http://www.w3.org/2000/svg">
<g clip-path="url(#clip0_35_5005)">
<path d="M18.1562 16.2656H16.8672C16.5112 16.2656 16.2227 16.5542 16.2227 16.9102C16.2227 17.2661 16.5112 17.5547 16.8672 17.5547H18.1562C18.5122 17.5547 18.8008 17.2661 18.8008 16.9102C18.8008 16.5542 18.5122 16.2656 18.1562 16.2656Z" fill="#0C395B"/>
<path d="M9.13281 16.2656H7.84375C7.4878 16.2656 7.19922 16.5542 7.19922 16.9102C7.19922 17.2661 7.4878 17.5547 7.84375 17.5547H9.13281C9.48876 17.5547 9.77734 17.2661 9.77734 16.9102C9.77734 16.5542 9.48876 16.2656 9.13281 16.2656Z" fill="#0C395B"/>
<path d="M22.4441 22.867L19.1042 19.9903C20.42 19.5845 21.3789 18.3573 21.3789 16.9101V7.80077C21.3789 6.0238 19.9332 4.57812 18.1563 4.57812H17.2655L16.5109 3.06889C16.1813 2.40958 15.5186 2 14.7815 2H11.2186C10.4814 2 9.8187 2.40958 9.48913 3.06885L8.73447 4.57812H7.84373C6.06676 4.57812 4.62108 6.0238 4.62108 7.80077V16.9101C4.62108 18.3573 5.57997 19.5845 6.89576 19.9903L3.55593 22.8671C3.28622 23.0994 3.25593 23.5064 3.48821 23.7761C3.72063 24.0459 4.12759 24.0761 4.39717 23.8438L5.71244 22.7109H20.2876L21.6028 23.8438C21.8725 24.0761 22.2794 24.0458 22.5118 23.776C22.7441 23.5063 22.7138 23.0994 22.4441 22.867ZM10.6421 3.64531C10.752 3.42557 10.9728 3.28906 11.2186 3.28906H14.7815C15.0271 3.28906 15.248 3.42557 15.3579 3.64536L15.8243 4.57812H10.1757L10.6421 3.64531ZM7.84378 5.86288H9.12974C9.1306 5.86288 9.13146 5.86301 9.13232 5.86301C9.13374 5.86301 9.13516 5.86288 9.13657 5.86288H18.1563C18.9965 5.86288 19.7129 6.40609 19.979 7.15624H6.12503H6.02105C6.28711 6.40609 7.00352 5.86288 7.84378 5.86288ZM19.7886 8.44315L18.2061 12.472C17.9107 13.2104 17.206 13.6875 16.4108 13.6875H9.58921C8.79394 13.6875 8.0893 13.2104 7.79539 12.4756L6.21148 8.44315H19.7886ZM5.91019 16.9101V11.2029L6.59704 12.9507C7.08933 14.1814 8.26379 14.9765 9.58921 14.9765H16.4108C17.7362 14.9765 18.9107 14.1814 19.4044 12.9471L20.0898 11.2029V16.9101C20.0898 17.9763 19.2224 18.8437 18.1563 18.8437H14.9336V18.1992C14.9336 17.133 14.0662 16.2656 13 16.2656C11.9338 16.2656 11.0664 17.133 11.0664 18.1992V18.8437H7.84378C6.7776 18.8437 5.91019 17.9763 5.91019 16.9101ZM13.6445 18.1992V18.8437H12.3555V18.1992C12.3555 17.8438 12.6446 17.5547 13 17.5547C13.3554 17.5547 13.6445 17.8438 13.6445 18.1992ZM7.20896 21.4218L8.70551 20.1328H17.2945L18.7911 21.4218H7.20896Z" fill="#0C395B"/>
</g>
<defs>
<clipPath id="clip0_35_5005">
<rect width="22" height="22" fill="white" transform="translate(2 2)"/>
</clipPath>
</defs>
</svg>
