<svg width="19" height="18" viewBox="0 0 19 18" fill="none" xmlns="http://www.w3.org/2000/svg">
<g clip-path="url(#clip0_37_581)">
<path d="M6.89128 1.01219H10.1064V2.02437H6.89128V1.01219ZM15.4054 15.3017C15.4054 15.4208 15.3459 15.5399 15.2268 15.6589C15.1077 15.778 14.9887 15.8376 14.8696 15.8376H12.7262V16.8497H14.8696C15.3062 16.8497 15.6734 16.7009 15.9711 16.4032C16.2688 16.1055 16.4176 15.7383 16.4176 15.3017V13.1583H15.4054V15.3017ZM14.8696 1.01219H12.7262V2.02437H14.8696C14.9887 2.02437 15.1077 2.08391 15.2268 2.20298C15.3459 2.32206 15.4054 2.44114 15.4054 2.56022V4.70365H16.4176V2.56022C16.4176 2.1236 16.2688 1.75644 15.9711 1.45874C15.6734 1.16104 15.3062 1.01219 14.8696 1.01219ZM1.59225 2.56022C1.59225 2.44114 1.65179 2.32206 1.77087 2.20298C1.88995 2.08391 2.00903 2.02437 2.12811 2.02437H4.27153V1.01219H2.12811C1.69148 1.01219 1.32432 1.16104 1.02663 1.45874C0.728927 1.75644 0.580078 2.1236 0.580078 2.56022V4.70365H1.59225V2.56022ZM15.4054 7.32339H16.4176V10.5385H15.4054V7.32339ZM12.7262 8.39511V5.23951C12.7262 5.08073 12.6765 4.95173 12.5773 4.8525C12.4781 4.75327 12.3491 4.70365 12.1903 4.70365H9.0347V5.77536H10.94L8.14161 8.57372C7.90345 8.45465 7.66529 8.39511 7.42713 8.39511H2.12811C1.96934 8.39511 1.79072 8.4348 1.59225 8.51418V7.32339H0.580078V15.3017C0.580078 15.7383 0.728927 16.1055 1.02663 16.4032C1.32432 16.7009 1.69148 16.8497 2.12811 16.8497H10.1064V15.8376H8.91562C8.99501 15.6391 9.0347 15.4605 9.0347 15.3017V10.0027C9.0347 9.76452 8.97516 9.52636 8.85608 9.2882L11.6544 6.48984V8.39511H12.7262ZM2.12811 15.8376C2.00903 15.8376 1.88995 15.778 1.77087 15.6589C1.65179 15.5399 1.59225 15.4208 1.59225 15.3017V10.0027C1.59225 9.8439 1.65179 9.7149 1.77087 9.61567C1.88995 9.51644 2.00903 9.46682 2.12811 9.46682H7.42713C7.58591 9.46682 7.71491 9.51644 7.81414 9.61567C7.91337 9.7149 7.96299 9.8439 7.96299 10.0027V15.3017C7.96299 15.4208 7.91337 15.5399 7.81414 15.6589C7.71491 15.778 7.58591 15.8376 7.42713 15.8376H2.12811Z" fill="#0C395B"/>
</g>
<defs>
<clipPath id="clip0_37_581">
<rect width="17.8619" height="17.8619" fill="white" transform="matrix(1 0 0 -1 0.580078 17.8619)"/>
</clipPath>
</defs>
</svg>
