<svg width="24" height="24" viewBox="0 0 24 24" fill="none" xmlns="http://www.w3.org/2000/svg">
<g clip-path="url(#clip0_78_5777)">
<path d="M4.21875 13.4122C4.34198 13.4122 4.46301 13.3621 4.55017 13.2749C4.63733 13.1877 4.6875 13.0669 4.6875 12.9435C4.6875 12.8197 4.63733 12.6994 4.55017 12.6121C4.46301 12.5249 4.34198 12.4747 4.21875 12.4747C4.09552 12.4747 3.97449 12.5249 3.88733 12.6121C3.80017 12.6994 3.75 12.8197 3.75 12.9435C3.75 13.0669 3.80017 13.1877 3.88733 13.2749C3.97449 13.3621 4.09552 13.4122 4.21875 13.4122Z" fill="#0C395B"/>
<path d="M19.3533 13.2598C19.79 13.4725 20.2692 13.5831 20.7656 13.5831C22.5491 13.5831 24 12.1322 24 10.3488C24 8.73083 22.8056 7.38647 21.2523 7.151C21.3212 6.81207 21.356 6.46619 21.356 6.11719C21.356 3.26111 19.0323 0.9375 16.1763 0.9375C13.32 0.9375 10.9966 3.26111 10.9966 6.11719C10.9966 6.28473 11.0046 6.45264 11.0208 6.61963C9.25763 7.12189 8.02039 8.73138 8.02039 10.6049C8.02039 11.2657 8.17273 11.8998 8.4646 12.4748H6.09375C5.83484 12.4748 5.625 12.6846 5.625 12.9435C5.625 13.2023 5.83484 13.4123 6.09375 13.4123H11.5312V15.4748H0.9375V13.4123H2.34375C2.60266 13.4123 2.8125 13.2023 2.8125 12.9435C2.8125 12.6846 2.60266 12.4748 2.34375 12.4748H0.46875C0.209839 12.4748 0 12.6846 0 12.9435V15.9435C0 16.2023 0.209839 16.4123 0.46875 16.4123H1.875V18.0938H0.46875C0.209839 18.0938 0 18.3036 0 18.5625V20.4375C0 20.6964 0.209839 20.9062 0.46875 20.9062H1.875V22.125H0.46875C0.209839 22.125 0 22.3348 0 22.5938C0 22.8527 0.209839 23.0625 0.46875 23.0625H21C21.2589 23.0625 21.4688 22.8527 21.4688 22.5938C21.4688 22.3348 21.2589 22.125 21 22.125H20.9526C20.9553 22.0748 20.9572 22.0245 20.9572 21.9741C20.9572 20.4935 19.7527 19.2891 18.2721 19.2891C17.6786 19.2891 17.1079 19.4883 16.645 19.8408V15.2329C17.8209 15.0738 18.8439 14.3253 19.3533 13.2598ZM9.55847 12.4748C9.16516 11.928 8.95789 11.2844 8.95789 10.6049C8.95789 9.03607 10.0789 7.70618 11.6234 7.44287C11.7469 7.42181 11.857 7.35205 11.929 7.24915C12.0007 7.14624 12.0284 7.0188 12.0055 6.89539C11.9581 6.63959 11.9341 6.37775 11.9341 6.11719C11.9341 3.77802 13.8371 1.875 16.1763 1.875C18.5153 1.875 20.4185 3.77802 20.4185 6.11719C20.4185 6.56891 20.3476 7.01404 20.2079 7.43994C20.1599 7.58588 20.1866 7.74591 20.2793 7.86859C20.3718 7.99109 20.5186 8.06067 20.6721 8.05444C20.703 8.05316 20.7341 8.05188 20.7656 8.05188C22.0322 8.05188 23.0625 9.08221 23.0625 10.3488C23.0625 11.6153 22.0322 12.6456 20.7656 12.6456C20.267 12.6456 19.793 12.4887 19.3945 12.1917C19.2706 12.0992 19.1091 12.0738 18.963 12.1238C18.8167 12.1736 18.7044 12.2924 18.6628 12.4413C18.3955 13.3986 17.5988 14.1064 16.645 14.2837V11.1918L18.9716 8.86505C19.1547 8.68195 19.1547 8.38513 18.9716 8.20203C18.7886 8.0191 18.4918 8.0191 18.3087 8.20203L16.645 9.86591V7.98981C16.645 7.7309 16.435 7.52106 16.1763 7.52106C15.9174 7.52106 15.7075 7.7309 15.7075 7.98981V10.9973V10.9977V11.5499L13.8913 9.7337C13.7082 9.5506 13.4114 9.5506 13.2283 9.7337C13.0452 9.91663 13.0452 10.2134 13.2283 10.3965L15.6786 12.847C15.6879 12.8562 15.6976 12.8646 15.7073 12.8729V14.2846C15.1657 14.1865 14.6726 13.9184 14.287 13.5048C14.1403 13.3473 13.9054 13.3099 13.7172 13.4141C13.3328 13.6267 12.9064 13.7578 12.4686 13.7992V12.9434C12.4686 12.6844 12.2587 12.4746 11.9998 12.4746H9.55847V12.4748ZM12 16.4123C12.2589 16.4123 12.4688 16.2023 12.4688 15.9435V14.7398C12.9481 14.7047 13.4189 14.5865 13.8565 14.3914C14.3773 14.8471 15.0236 15.1404 15.7075 15.2331V20.1713C14.6505 20.2936 13.7974 21.0939 13.5958 22.125H10.5938V20.9062H12C12.2589 20.9062 12.4688 20.6964 12.4688 20.4375V18.5625C12.4688 18.3036 12.2589 18.0938 12 18.0938H10.5938V16.4123H12ZM2.8125 16.4123H9.65625V18.0938H2.8125V16.4123ZM0.9375 19.0312H11.5312V19.9688H0.9375V19.0312ZM2.8125 20.9062H9.65625V22.125H2.8125V20.9062ZM16.8519 20.9562C17.1802 20.4994 17.7111 20.2266 18.2721 20.2266C19.2356 20.2266 20.0197 21.0106 20.0197 21.9741C20.0197 22.0245 20.0175 22.0748 20.0131 22.125H14.5626C14.7599 21.5257 15.325 21.0919 15.9895 21.0919C16.1135 21.0919 16.2371 21.1073 16.357 21.1373C16.5434 21.1842 16.7397 21.1124 16.8519 20.9562Z" fill="#0C395B"/>
<path d="M16.1758 6.5835C16.2996 6.5835 16.42 6.53333 16.5072 6.44617C16.5944 6.35901 16.6445 6.23798 16.6445 6.11475C16.6445 5.99152 16.5944 5.87048 16.5072 5.78333C16.42 5.69617 16.2996 5.646 16.1758 5.646C16.0526 5.646 15.9315 5.69617 15.8444 5.78333C15.7572 5.87048 15.707 5.99152 15.707 6.11475C15.707 6.23798 15.7572 6.35901 15.8444 6.44617C15.9315 6.53333 16.0526 6.5835 16.1758 6.5835Z" fill="#0C395B"/>
</g>
<defs>
<clipPath id="clip0_78_5777">
<rect width="24" height="24" fill="white"/>
</clipPath>
</defs>
</svg>
