<svg width="22" height="22" viewBox="0 0 22 22" fill="none" xmlns="http://www.w3.org/2000/svg">
<path d="M21.3954 4.17435C20.9875 3.7084 20.4061 3.45177 19.7584 3.45177H4.09932L3.94171 2.27013C3.77185 0.997177 2.88562 0 1.92403 0H0.773438C0.417435 0 0.128906 0.288528 0.128906 0.644531C0.128906 1.00053 0.417435 1.28906 0.773438 1.28906H1.92403C2.13081 1.28906 2.56873 1.7263 2.66389 2.44049L4.50887 16.2781C4.5901 16.8881 4.90347 17.4591 5.39124 17.8861C5.75294 18.2028 6.18045 18.4135 6.62827 18.5016C6.44582 18.8371 6.34209 19.2215 6.34209 19.6295C6.34209 20.9367 7.40556 22 8.71259 22C10.0196 22 11.0831 20.9367 11.0831 19.6295C11.0831 19.2401 10.9881 18.8727 10.8209 18.5482H14.1983C14.0311 18.8727 13.9361 19.2401 13.9361 19.6295C13.9361 20.9367 14.9996 22 16.3066 22C17.6137 22 18.6771 20.9367 18.6771 19.6295C18.6771 19.2401 18.5821 18.8727 18.415 18.5482H20.1037C20.4595 18.5482 20.7482 18.2595 20.7482 17.9037C20.7482 17.5477 20.4595 17.2592 20.1037 17.2592H7.10176C6.472 17.2592 5.86977 16.7318 5.78651 16.1076L5.65173 15.0963H10.6682C10.6683 15.0963 10.6685 15.0965 10.6687 15.0965C10.6688 15.0965 10.669 15.0963 10.6693 15.0963H14.8101C14.8103 15.0963 14.8105 15.0965 14.8108 15.0965C14.811 15.0965 14.811 15.0963 14.8111 15.0963H18.3777C18.993 15.0963 19.6005 14.8611 20.0882 14.4343C20.576 14.0073 20.8894 13.4361 20.9706 12.8262L21.8951 5.89243C21.9807 5.25041 21.8033 4.64029 21.3954 4.17435ZM9.79402 19.6295C9.79402 20.2259 9.30894 20.7109 8.71259 20.7109C8.11639 20.7109 7.63115 20.2259 7.63115 19.6295C7.63115 19.0333 8.11639 18.5482 8.71259 18.5482C9.30894 18.5482 9.79402 19.0333 9.79402 19.6295ZM17.3881 19.6295C17.3881 20.2259 16.903 20.7109 16.3066 20.7109C15.7103 20.7109 15.2252 20.2259 15.2252 19.6295C15.2252 19.0333 15.7103 18.5482 16.3066 18.5482C16.903 18.5482 17.3881 19.0333 17.3881 19.6295ZM20.4254 5.02348C20.5851 5.20576 20.6532 5.45367 20.6173 5.72189L20.2297 8.6295H15.8442L16.1034 4.74083H19.7584C20.0291 4.74083 20.266 4.8412 20.4254 5.02348ZM11.2722 13.8072L11.0129 9.91856H14.4664L14.207 13.8072H11.2722ZM10.927 8.6295L10.6678 4.74083H14.8115L14.5523 8.6295H10.927ZM9.37592 4.74083L9.63507 8.6295H4.78951L4.27103 4.74083H9.37592ZM4.96138 9.91856H9.72101L9.98033 13.8072H5.47986L4.96138 9.91856ZM18.3777 13.8072H15.499L15.7583 9.91856H20.0578L19.6929 12.6558C19.6097 13.28 19.0073 13.8072 18.3777 13.8072Z" fill="#0C395B"/>
</svg>
