<svg width="17" height="17" viewBox="0 0 17 17" fill="none" xmlns="http://www.w3.org/2000/svg">
<path d="M16.0674 0.625L15.9274 0.65125L11.2549 2.4625L6.00488 0.625L1.06988 2.2875C0.886133 2.34875 0.754883 2.50625 0.754883 2.7075V15.9375C0.754883 16.1825 0.947383 16.375 1.19238 16.375L1.33238 16.3487L6.00488 14.5375L11.2549 16.375L16.1899 14.7125C16.3736 14.6512 16.5049 14.4938 16.5049 14.2925V1.0625C16.5049 0.8175 16.3124 0.625 16.0674 0.625ZM6.87988 2.78625L10.3799 4.01125V14.2138L6.87988 12.9887V2.78625ZM2.50488 3.6525L5.12988 2.76875V13.0062L2.50488 14.0212V3.6525ZM14.7549 13.3475L12.1299 14.2312V4.0025L14.7549 2.9875V13.3475Z" fill="#33806A"/>
</svg>
